<?xml version="1.0" standalone="no"?>
<svg xmlns:xlink="http://www.w3.org/1999/xlink" id="wave"  viewBox="0 0 1440 130" version="1.1" xmlns="http://www.w3.org/2000/svg"><defs><linearGradient id="sw-gradient-0" x1="0" x2="0" y1="1" y2="0"><stop stop-color="rgba(243, 106, 62, 1)" offset="0%"/><stop stop-color="rgba(255, 179, 11, 1)" offset="100%"/></linearGradient></defs><path style="transform:translate(0, 0px); opacity:1" fill="url(#sw-gradient-0)" d="M0,52L60,49.8C120,48,240,43,360,52C480,61,600,82,720,88.8C840,95,960,87,1080,73.7C1200,61,1320,43,1440,39C1560,35,1680,43,1800,49.8C1920,56,2040,61,2160,62.8C2280,65,2400,65,2520,54.2C2640,43,2760,22,2880,19.5C3000,17,3120,35,3240,39C3360,43,3480,35,3600,45.5C3720,56,3840,87,3960,101.8C4080,117,4200,117,4320,104C4440,91,4560,65,4680,45.5C4800,26,4920,13,5040,19.5C5160,26,5280,52,5400,58.5C5520,65,5640,52,5760,41.2C5880,30,6000,22,6120,34.7C6240,48,6360,82,6480,80.2C6600,78,6720,39,6840,28.2C6960,17,7080,35,7200,45.5C7320,56,7440,61,7560,69.3C7680,78,7800,91,7920,86.7C8040,82,8160,61,8280,49.8C8400,39,8520,39,8580,39L8640,39L8640,130L8580,130C8520,130,8400,130,8280,130C8160,130,8040,130,7920,130C7800,130,7680,130,7560,130C7440,130,7320,130,7200,130C7080,130,6960,130,6840,130C6720,130,6600,130,6480,130C6360,130,6240,130,6120,130C6000,130,5880,130,5760,130C5640,130,5520,130,5400,130C5280,130,5160,130,5040,130C4920,130,4800,130,4680,130C4560,130,4440,130,4320,130C4200,130,4080,130,3960,130C3840,130,3720,130,3600,130C3480,130,3360,130,3240,130C3120,130,3000,130,2880,130C2760,130,2640,130,2520,130C2400,130,2280,130,2160,130C2040,130,1920,130,1800,130C1680,130,1560,130,1440,130C1320,130,1200,130,1080,130C960,130,840,130,720,130C600,130,480,130,360,130C240,130,120,130,60,130L0,130Z"/></svg>